<svg width="500" height="350" viewBox="0 0 500 350" fill="none" xmlns="http://www.w3.org/2000/svg">
<rect width="500" height="350" rx="30" fill="#EA5753"/>
<rect x="20" y="20" width="460" height="310" rx="20" stroke="white" stroke-width="10"/>
<rect x="46" y="229" width="408" height="73" rx="5" fill="white" stroke="white" stroke-width="10"/>
<path d="M191.209 114H176.561V83.5312H147.996V114H133.348V42.9062H147.996V71.7148H176.561V42.9062H191.209V114ZM246.824 83.1895H218.699V102.232H251.707V114H204.051V42.9062H251.609V54.7715H218.699V71.7148H246.824V83.1895ZM274.949 102.232H306.053V114H260.301V42.9062H274.949V102.232ZM329.148 88.9512V114H314.5V42.9062H342.234C347.573 42.9062 352.26 43.8828 356.297 45.8359C360.366 47.7891 363.491 50.5723 365.672 54.1855C367.853 57.7663 368.943 61.8516 368.943 66.4414C368.943 73.4076 366.551 78.9089 361.766 82.9453C357.013 86.9492 350.421 88.9512 341.99 88.9512H329.148ZM329.148 77.0859H342.234C346.108 77.0859 349.054 76.1745 351.072 74.3516C353.123 72.5286 354.148 69.9245 354.148 66.5391C354.148 63.056 353.123 60.2402 351.072 58.0918C349.021 55.9434 346.189 54.8366 342.576 54.7715H329.148V77.0859Z" fill="white"/>
<path d="M108.719 179.492L118.289 128.906H132.889L117.117 200H102.371L90.7988 152.441L79.2266 200H64.4805L48.709 128.906H63.3086L72.9277 179.395L84.6465 128.906H97.0488L108.719 179.492ZM178.836 185.352H153.152L148.27 200H132.693L159.158 128.906H172.732L199.344 200H183.768L178.836 185.352ZM157.107 173.486H174.881L165.945 146.875L157.107 173.486ZM263.797 200H249.148L220.633 153.223V200H205.984V128.906H220.633L249.197 175.781V128.906H263.797V200ZM328.641 140.771H306.863V200H292.215V140.771H270.73V128.906H328.641V140.771ZM379.812 169.189H351.688V188.232H384.695V200H337.039V128.906H384.598V140.771H351.688V157.715H379.812V169.189ZM393.289 200V128.906H415.164C421.414 128.906 426.997 130.322 431.912 133.154C436.86 135.954 440.717 139.958 443.484 145.166C446.251 150.342 447.635 156.234 447.635 162.842V166.113C447.635 172.721 446.268 178.597 443.533 183.74C440.831 188.883 437.007 192.871 432.059 195.703C427.111 198.535 421.528 199.967 415.311 200H393.289ZM407.938 140.771V188.232H415.018C420.747 188.232 425.125 186.361 428.152 182.617C431.18 178.874 432.726 173.519 432.791 166.553V162.793C432.791 155.566 431.294 150.098 428.299 146.387C425.304 142.643 420.926 140.771 415.164 140.771H407.938Z" fill="white"/>
<path d="M183.614 288.8C183.614 287.115 184.176 285.748 185.299 284.698C186.446 283.648 187.875 283.124 189.583 283.124C191.317 283.124 192.745 283.648 193.868 284.698C195.016 285.748 195.589 287.115 195.589 288.8C195.589 290.46 195.028 291.815 193.905 292.865C192.782 293.89 191.341 294.403 189.583 294.403C187.85 294.403 186.422 293.89 185.299 292.865C184.176 291.815 183.614 290.46 183.614 288.8ZM227.083 240.68H238.07V277.594C238.07 280.987 237.313 283.99 235.799 286.603C234.31 289.19 232.198 291.192 229.464 292.608C226.729 294.024 223.641 294.732 220.199 294.732C214.559 294.732 210.165 293.304 207.015 290.448C203.866 287.567 202.291 283.502 202.291 278.253H213.351C213.351 280.865 213.9 282.794 214.999 284.039C216.097 285.284 217.831 285.907 220.199 285.907C222.298 285.907 223.971 285.187 225.216 283.746C226.461 282.306 227.083 280.255 227.083 277.594V240.68ZM275.13 280.011C275.13 277.936 274.398 276.349 272.933 275.25C271.468 274.127 268.832 272.955 265.023 271.734C261.214 270.489 258.199 269.269 255.978 268.072C249.923 264.801 246.896 260.394 246.896 254.852C246.896 251.971 247.701 249.408 249.312 247.162C250.948 244.891 253.28 243.121 256.307 241.852C259.359 240.582 262.777 239.947 266.561 239.947C270.37 239.947 273.763 240.643 276.742 242.035C279.72 243.402 282.027 245.343 283.663 247.857C285.323 250.372 286.153 253.229 286.153 256.427H275.167C275.167 253.985 274.398 252.093 272.86 250.75C271.322 249.383 269.161 248.7 266.378 248.7C263.692 248.7 261.605 249.273 260.116 250.421C258.626 251.544 257.882 253.033 257.882 254.889C257.882 256.622 258.749 258.075 260.482 259.247C262.24 260.418 264.815 261.517 268.209 262.542C274.459 264.422 279.012 266.754 281.869 269.537C284.725 272.32 286.153 275.787 286.153 279.938C286.153 284.552 284.408 288.177 280.917 290.814C277.425 293.426 272.726 294.732 266.817 294.732C262.716 294.732 258.98 293.988 255.611 292.499C252.242 290.985 249.667 288.922 247.884 286.31C246.126 283.697 245.248 280.67 245.248 277.228H256.271C256.271 283.111 259.786 286.053 266.817 286.053C269.43 286.053 271.468 285.528 272.933 284.479C274.398 283.404 275.13 281.915 275.13 280.011Z" fill="#767676"/>
</svg>
